#!OML:ASF H:\Terrain\Patient Classification 1\Walking\liu\liu.ASF
:FULLY-SPECIFIED
:DEGREES
337
root 9.75646 17.3819 21.2886 5.09205 -4.2938 1.64808
lowerback -5.12622 0.200435 -2.62586
upperback -0.428374 0.378399 1.502
thorax 2.40644 0.154917 3.05063
lowerneck -21.6434 -3.3336 -10.6462
upperneck 25.3377 -3.84452 9.62919
head 12.3859 -1.48923 4.84452
rclavicle 4.69629e-015 -5.56597e-015
rhumerus -28.707 12.2289 -87.7975
rradius 27.4217
rwrist -11.4109
rhand -29.0678 -24.1125
rfingers 7.12502
rthumb -2.41717 -54.0785
lclavicle 4.69629e-015 -5.56597e-015
lhumerus -36.7 2.22099 85.0392
lradius 16.7776
lwrist -11.5484
lhand -12.1333 -26.4896
lfingers 7.12502
lthumb 13.9285 3.02391
rfemur -18.3572 -5.24818 18.7055
rtibia 71.201
rfoot -1.64337 -15.0704
rtoes -12.2777
lfemur -19.7139 3.45483 -26.7986
ltibia 25.8783
lfoot -10.4621 2.79864
ltoes 0.013306
338
root 9.76201 17.3928 21.452 5.01867 -3.98856 1.9348
lowerback -5.16865 -0.0103539 -3.02939
upperback -0.383424 0.120421 1.55485
thorax 2.49445 0.0194801 3.31558
lowerneck -19.8176 -2.85149 -11.593
upperneck 23.8087 -3.24989 10.7424
head 11.3928 -1.19679 5.45855
rclavicle -2.3233e-014 -1.90833e-014
rhumerus -29.2476 11.2215 -87.3305
rradius 27.112
rwrist -10.3604
rhand -29.6361 -24.1254
rfingers 7.12502
rthumb -2.96598 -54.0845
lclavicle -2.3233e-014 -1.90833e-014
lhumerus -35.5102 1.8564 85.4959
lradius 17.1552
lwrist -11.7508
lhand -11.5994 -26.3227
lfingers 7.12502
lthumb 14.4431 3.15471
rfemur -19.6365 -5.24971 18.7057
rtibia 71.5004
rfoot -3.33429 -14.5377
rtoes -12.9303
lfemur -18.7172 2.96087 -27.1002
ltibia 25.3494
lfoot -10.7508 2.92141
ltoes 0.165219
339
root 9.77226 17.4061 21.6178 5.07767 -3.58937 2.0244
lowerback -5.08315 -0.237376 -3.0702
upperback -0.612666 -0.182748 1.53579
thorax 2.23432 -0.123835 3.29637
lowerneck -19.7486 -2.70088 -11.5131
upperneck 24.2481 -3.08436 10.6927
head 11.5198 -1.12732 5.47053
rclavicle -2.09718e-014 -3.97569e-015
rhumerus -30.221 10.1265 -87.0887
rradius 26.9559
rwrist -9.09953
rhand -29.3896 -25.9446
rfingers 7.12502
rthumb -2.72794 -55.9069
lclavicle -2.09718e-014 -3.97569e-015
lhumerus -34.7597 0.523197 86.1078
lradius 17.6815
lwrist -10.8443
lhand -10.7764 -25.8118
lfingers 7.12502
lthumb 15.2359 3.60711
rfemur -20.9411 -5.08453 18.9029
rtibia 71.5461
rfoot -5.26172 -13.8217
rtoes -12.6902
lfemur -17.8781 2.56532 -27.24
ltibia 24.9725
lfoot -11.107 2.96156
ltoes 0.240116
340
root 9.78076 17.4189 21.7713 5.16327 -3.23381 1.57695
lowerback -4.81226 -0.397192 -2.53215
upperback -0.901665 -0.433101 1.60127
thorax 1.8016 -0.233698 3.04371
lowerneck -21.1963 -2.96272 -10.5317
upperneck 26.0896 -3.40482 9.48891
head 12.5313 -1.31901 4.87286
rclavicle 1.25483e-014 -3.18055e-015
rhumerus -31.2305 9.75286 -87.1158
rradius 26.7335
rwrist -8.93052
rhand -30.0455 -25.3494
rfingers 7.12502
rthumb -3.36141 -55.3027
lclavicle 1.25483e-014 -3.18055e-015
lhumerus -34.0572 -1.14072 86.681
lradius 18.1096
lwrist -9.91867
lhand -10.5455 -25.5244
lfingers 7.12502
lthumb 15.4583 3.87747
rfemur -22.3527 -4.89335 19.7565
rtibia 71.3374
rfoot -6.76997 -13.2858
rtoes -13.738
lfemur -17.2218 2.2866 -26.791
ltibia 24.8244
lfoot -11.7087 3.06538
ltoes -0.435178
341
root 9.78605 17.4221 21.9349 5.05465 -2.88002 1.19758
lowerback -4.77794 -0.564431 -2.23013
upperback -0.83664 -0.676387 1.80941
thorax 1.86592 -0.355851 3.07287
lowerneck -20.1946 -2.71813 -11.0517
upperneck 25.1865 -3.12912 10.1797
head 11.9586 -1.16909 5.2311
rclavicle -1.11816e-015 3.18055e-015
rhumerus -31.7961 9.65082 -86.8609
rradius 26.4663
rwrist -9.25613
rhand -31.1448 -23.1111
rfingers 7.12502
rthumb -4.42295 -53.0449
lclavicle -1.11816e-015 3.18055e-015
lhumerus -32.776 -2.40773 87.3152
lradius 18.3723
lwrist -9.21418
lhand -10.7947 -25.7448
lfingers 7.12502
lthumb 15.2183 3.67548
rfemur -23.4506 -4.73637 20.5014
rtibia 70.8439
rfoot -7.79252 -12.8538
rtoes -14.6435
lfemur -16.4516 1.94375 -26.385
ltibia 24.8225
lfoot -12.5005 3.18166
ltoes -1.27829
342
root 9.79183 17.406 22.1025 4.89638 -2.52615 1.12981
lowerback -4.82473 -0.821967 -2.29418
upperback -0.624016 -1.01946 1.9438
thorax 2.1387 -0.534967 3.22407
lowerneck -21.7849 -2.99613 -10.5075
upperneck 26.2495 -3.36866 9.35567
head 12.7081 -1.30849 4.83377
rclavicle -1.84621e-014 7.95139e-016
rhumerus -32.2114 9.76822 -86.6834
rradius 26.3562
rwrist -9.41916
rhand -30.778 -24.099
rfingers 7.12502
rthumb -4.0688 -54.0399
lclavicle -1.84621e-014 7.95139e-016
lhumerus -31.3683 -3.81153 87.8664
lradius 18.9577
lwrist -7.97691
lhand -10.9193 -25.7027
lfingers 7.12502
lthumb 15.0982 3.72662
rfemur -24.5674 -4.65814 20.8688
rtibia 70.1788
rfoot -8.14388 -12.5071
rtoes -16.6727
lfemur -15.8078 1.61508 -26.3202
ltibia 25.1102
lfoot -13.2772 3.17699
ltoes -1.52305
343
root 9.79836 17.405 22.2642 4.88196 -2.17172 1.21013
lowerback -4.82149 -1.02279 -2.37194
upperback -0.557268 -1.28272 1.912
thorax 2.22598 -0.669164 3.21648
lowerneck -21.8171 -2.80456 -10.3003
upperneck 26.4466 -3.12678 9.19757
head 12.756 -1.20284 4.78505
rclavicle -6.33626e-015 2.94201e-014
rhumerus -32.7642 9.8664 -86.717
rradius 26.1847
rwrist -9.72636
rhand -30.2404 -26.6671
rfingers 7.12502
rthumb -3.54962 -56.6173
lclavicle -6.33626e-015 2.94201e-014
lhumerus -30.2458 -5.50029 88.2753
lradius 19.703
lwrist -6.69703
lhand -11.0475 -25.2808
lfingers 7.12502
lthumb 14.9747 4.15781
rfemur -25.8534 -4.64966 21.0277
rtibia 69.4672
rfoot -8.64651 -12.0711
rtoes -18.2117
lfemur -15.0563 1.23341 -26.4314
ltibia 24.8966
lfoot -13.7161 3.20866
ltoes -1.35718
344
root 9.77761 17.4025 22.4441 4.94146 -2.22586 0.503522
lowerback -4.78621 -1.00033 -1.9766
upperback -0.830307 -1.27879 2.19919
thorax 1.92276 -0.657393 3.29352
lowerneck -21.9421 -2.93094 -10.4185
upperneck 27.0507 -3.3237 9.30247
head 13.0571 -1.29442 4.843
rclavicle -5.65294e-015 2.14687e-014
rhumerus -34.0173 9.91478 -86.7117
rradius 26.1992
rwrist -10.2706
rhand -30.3284 -27.6988
rfingers 7.12502
rthumb -3.63462 -57.6476
lclavicle -5.65294e-015 2.14687e-014
lhumerus -29.9442 -6.27572 88.5183
lradius 20.6233
lwrist -6.71208
lhand -11.0103 -25.0289
lfingers 7.12502
lthumb 15.0106 4.40701
rfemur -27.0269 -3.72367 22.2414
rtibia 68.5374
rfoot -9.80877 -11.842
rtoes -16.7494
lfemur -14.4531 1.10684 -25.5559
ltibia 24.8328
lfoot -14.2252 3.44607
ltoes -1.36023
345
root 9.83703 17.3803 22.5896 4.95495 -1.22092 2.35897
lowerback -3.86492 -1.43156 -3.16168
upperback -1.7168 -1.81033 1.63652
thorax 0.551908 -0.890045 3.37805
lowerneck -20.7842 -2.70268 -10.45
upperneck 27.3478 -3.08915 9.19363
head 12.9062 -1.23597 4.8474
rclavicle -1.7462e-014 -1.59028e-014
rhumerus -36.2694 10.2329 -86.8782
rradius 26.5865
rwrist -11.2053
rhand -31.3323 -26.1517
rfingers 7.12502
rthumb -4.60399 -56.0816
lclavicle -1.7462e-014 -1.59028e-014
lhumerus -30.4796 -7.00514 88.8489
lradius 21.546
lwrist -6.94656
lhand -10.8633 -24.9461
lfingers 7.12502
lthumb 15.1522 4.47921
rfemur -28.1392 -5.29704 19.9285
rtibia 67.8011
rfoot -10.6334 -10.0253
rtoes -17.2792
lfemur -13.6543 0.484361 -27.9055
ltibia 24.6798
lfoot -14.8096 3.08031
ltoes -2.01031
346
root 9.83711 17.3629 22.7595 4.60124 -1.01096 1.83787
lowerback -5.08205 -1.60501 -2.91697
upperback -0.299851 -2.02546 1.94595
thorax 2.71293 -1.05744 3.49636
lowerneck -21.8363 -2.75537 -10.6601
upperneck 26.489 -2.98528 9.39628
head 12.7692 -1.15169 4.9537
rclavicle -3.41413e-014 3.18055e-015
rhumerus -34.9228 10.4718 -86.3736
rradius 26.7519
rwrist -11.9963
rhand -33.7261 -23.3509
rfingers 7.12502
rthumb -6.91521 -53.218
lclavicle -3.41413e-014 3.18055e-015
lhumerus -26.9739 -8.70405 89.0427
lradius 21.4421
lwrist -5.54218
lhand -11.0005 -24.9759
lfingers 7.12502
lthumb 15.02 4.45935
rfemur -28.7439 -4.85009 20.7788
rtibia 66.5492
rfoot -11.5316 -9.77294
rtoes -18.5716
lfemur -12.6528 0.44879 -27.3274
ltibia 24.8113
lfoot -15.4404 3.07201
ltoes -2.08738
347
root 9.83207 17.3462 22.9298 4.29252 -0.987259 1.37086
lowerback -4.27455 -1.72487 -2.66529
upperback -0.580052 -2.21988 2.15033
thorax 1.98621 -1.13701 3.57777
lowerneck -21.9372 -2.63698 -10.4819
upperneck 27.0483 -2.83249 9.17355
head 12.9906 -1.10235 4.88662
rclavicle 7.28049e-015 -1.74931e-014
rhumerus -36.4945 10.7423 -86.4786
rradius 27.4175
rwrist -12.3131
rhand -37.2822 -22.7658
rfingers 7.12502
rthumb -10.3469 -52.4912
lclavicle 7.28049e-015 -1.74931e-014
lhumerus -26.3578 -10.2345 89.2679
lradius 21.7233
lwrist -4.0172
lhand -11.4413 -25.362
lfingers 7.12502
lthumb 14.5954 4.10449
rfemur -29.3788 -4.19272 21.5519
rtibia 65.1243
rfoot -12.2511 -9.64673
rtoes -18.5463
lfemur -11.6165 0.526595 -26.7754
ltibia 24.6971
lfoot -15.7941 3.10211
ltoes -1.38387
348
root 9.81704 17.3352 23.0862 4.56826 -0.552389 1.17385
lowerback -4.25457 -1.94817 -2.75881
upperback -0.736287 -2.51625 2.2915
thorax 1.84908 -1.28185 3.76089
lowerneck -22.4005 -2.48587 -10.1661
upperneck 27.493 -2.63594 8.94999
head 13.2357 -1.01093 4.80181
rclavicle -1.22004e-014 -7.15625e-015
rhumerus -37.3451 11.1705 -86.6306
rradius 27.7745
rwrist -12.9263
rhand -32.1618 -26.9397
rfingers 7.12502
rthumb -5.40496 -56.8507
lclavicle -1.22004e-014 -7.15625e-015
lhumerus -25.2826 -11.5872 89.2758
lradius 22.2551
lwrist -3.00616
lhand -11.8235 -25.6391
lfingers 7.12502
lthumb 14.2271 3.85359
rfemur -30.5417 -3.88145 22.0749
rtibia 63.3925
rfoot -12.8234 -9.65831
rtoes -18.0062
lfemur -11.5146 0.174585 -26.4468
ltibia 24.959
lfoot -16.2787 2.83649
ltoes -0.285237
349
root 9.80854 17.3278 23.269 4.58322 -0.320856 1.3694
lowerback -4.53251 -2.02156 -3.06789
upperback -0.666833 -2.59278 2.23645
thorax 2.09402 -1.32751 3.86255
lowerneck -21.7195 -2.58176 -10.6264
upperneck 26.8239 -2.75788 9.32652
head 12.8493 -1.06481 4.97303
rclavicle 2.21148e-015 -9.54166e-015
rhumerus -38.0668 11.0136 -86.5253
rradius 27.8292
rwrist -13.4728
rhand -30.2922 -28.2073
rfingers 7.12502
rthumb -3.59968 -58.1567
lclavicle 2.21148e-015 -9.54166e-015
lhumerus -24.1647 -13.2828 89.2897
lradius 22.9052
lwrist -2.00742
lhand -12.051 -25.6025
lfingers 7.12502
lthumb 14.0079 3.90551
rfemur -31.2813 -3.54048 22.0032
rtibia 61.5829
rfoot -13.5211 -9.46628
rtoes -17.3799
lfemur -10.7374 0.0847535 -26.6116
ltibia 24.7703
lfoot -16.7746 2.55302
ltoes 0.815203
350
root 9.79619 17.3196 23.4583 4.49311 -0.275407 1.25007
lowerback -4.7485 -2.09998 -3.15137
upperback -0.489967 -2.68842 2.23166
thorax 2.40987 -1.38477 3.88697
lowerneck -22.4257 -2.741 -10.2845
upperneck 27.2361 -3.00531 9.13354
head 13.1869 -1.15706 4.82027
rclavicle -6.21202e-016 8.74653e-015
rhumerus -38.7642 10.733 -86.4888
rradius 28.0408
rwrist -13.7484
rhand -30.5763 -26.9516
rfingers 7.12502
rthumb -3.87395 -56.8962
lclavicle -6.21202e-016 8.74653e-015
lhumerus -23.0355 -14.6249 88.9619
lradius 23.7345
lwrist -1.14437
lhand -12.5233 -25.5406
lfingers 7.12502
lthumb 13.5527 3.99832
rfemur -31.888 -2.84036 22.2739
rtibia 59.6655
rfoot -14.0014 -9.54311
rtoes -17.1943
lfemur -9.57124 0.312256 -26.4318
ltibia 24.0668
lfoot -17.1138 2.47849
ltoes 0.0213611
